<svg xmlns="http://www.w3.org/2000/svg" width="540.948" height="356.75" viewBox="0 0 540.948 356.75">
  <g id="logo_hkstp_20a_color" transform="translate(-1963.375 -1472.57)">
    <g id="Group_653" data-name="Group 653">
      <g id="Group_652" data-name="Group 652">
        <path id="Path_404" data-name="Path 404" d="M2488.327,1569.894a15.944,15.944,0,0,0-12.077,5.528c-4.707-.19-10.9-.661-14.705-1.793a22.989,22.989,0,0,0-7.941-21.61q.761-1.5,1.627-3.055c.874-1.566,1.825-3.17,2.836-4.8q.521-.838,1.059-1.683a304.773,304.773,0,0,1,20.44-27.549c.637-.775,1.261-1.531,1.854-2.244,1.931-2.32,3.6-4.277,4.888-5.77a17.172,17.172,0,1,0-15.4-9.084c-3.963,14.219-13.345,33.183-23.218,50.533a23.258,23.258,0,0,0-27.539,7.274c-8.394-4.521-15.21-8.429-27.785-20.2,0-.065.01-.129.01-.2a16.258,16.258,0,1,0-7.943,13.929c16.878,3.679,26.01,8.311,32.547,12.015a23.242,23.242,0,0,0,19.607,31.8c1.557,14.352-.269,37.347-2.736,49.575a17.437,17.437,0,1,0,17.16-.47c-2.354-8.246-7.666-28.683-7.428-49.551a23.3,23.3,0,0,0,15.851-12.386,136.831,136.831,0,0,1,12.978,7.369,16,16,0,1,0,15.914-17.636Z" fill="#0c2a5e"/>
      </g>
    </g>
    <g id="Group_664" data-name="Group 664">
      <g id="Group_655" data-name="Group 655">
        <g id="Group_654" data-name="Group 654">
          <path id="Path_405" data-name="Path 405" d="M2080.154,1614.959l47.061-47.061H2095.9l-31.4,31.4-15.66,15.66,15.66,15.66,31.427,31.428h31.317Z" fill="#0c2a5e"/>
        </g>
      </g>
      <g id="Group_657" data-name="Group 657">
        <g id="Group_656" data-name="Group 656">
          <path id="Path_406" data-name="Path 406" d="M2188.1,1662.164a29.112,29.112,0,0,0,29.106-28.548c.307-16.318-13.441-29.671-29.761-29.671h-24.007a7.124,7.124,0,0,1-7.218-6.718,6.933,6.933,0,0,1,6.928-7.147h51.531a2.529,2.529,0,0,0,2.532-2.529v-17.119a2.531,2.531,0,0,0-2.532-2.529h-50.876c-16.32,0-30.068,13.356-29.761,29.673a29.111,29.111,0,0,0,29.106,28.546h24.663a7.122,7.122,0,0,1,7.217,6.718,6.93,6.93,0,0,1-6.928,7.144h-51.531a2.531,2.531,0,0,0-2.532,2.532v17.119a2.531,2.531,0,0,0,2.532,2.529Z" fill="#f05a21"/>
        </g>
      </g>
      <g id="Group_659" data-name="Group 659">
        <g id="Group_658" data-name="Group 658">
          <path id="Path_407" data-name="Path 407" d="M2308.947,1567.9h-78.113a2.531,2.531,0,0,0-2.53,2.529v17.119a2.531,2.531,0,0,0,2.53,2.532h25.438a2.53,2.53,0,0,1,2.529,2.53v67.022a2.53,2.53,0,0,0,2.53,2.529h17.119a2.528,2.528,0,0,0,2.529-2.529v-67.022a2.531,2.531,0,0,1,2.532-2.53h25.436a2.531,2.531,0,0,0,2.529-2.532v-17.119a2.53,2.53,0,0,0-2.529-2.529" fill="#f05a21"/>
        </g>
      </g>
      <g id="Group_661" data-name="Group 661">
        <g id="Group_660" data-name="Group 660">
          <path id="Path_408" data-name="Path 408" d="M2376.131,1603.944h-29.064a2.53,2.53,0,0,1-2.529-2.53v-8.8a2.53,2.53,0,0,1,2.529-2.53h29.353a6.929,6.929,0,0,1,6.928,7.144,7.122,7.122,0,0,1-7.217,6.718m-.365-36.042h-50.877a2.529,2.529,0,0,0-2.529,2.529v89.2a2.528,2.528,0,0,0,2.529,2.529h17.119a2.53,2.53,0,0,0,2.53-2.529v-30.98a2.53,2.53,0,0,1,2.529-2.532h29.353a29.109,29.109,0,0,0,29.106-28.546c.31-16.317-13.441-29.674-29.76-29.674" fill="#f05a21"/>
        </g>
      </g>
      <g id="Group_663" data-name="Group 663">
        <g id="Group_662" data-name="Group 662">
          <path id="Path_409" data-name="Path 409" d="M2026.658,1567.9v36.042h-38.813V1567.9h-22.18v94.262h22.18v-36.042h38.813v36.042h22.18V1567.9Z" fill="#0c2a5e"/>
        </g>
      </g>
    </g>
    <g id="Group_669" data-name="Group 669">
      <g id="Group_666" data-name="Group 666">
        <g id="Group_665" data-name="Group 665">
          <path id="Path_410" data-name="Path 410" d="M1963.375,1796.118a71.479,71.479,0,0,1,1.223-13.637,38.334,38.334,0,0,1,4.371-11.8,43.994,43.994,0,0,1,8.567-10.49,71.9,71.9,0,0,1,13.986-9.7q6.118-3.32,11.54-6.119a103.617,103.617,0,0,0,9.528-5.507,28.127,28.127,0,0,0,6.556-5.77,11.006,11.006,0,0,0,2.448-7.08q0-5.594-4.808-10.053t-13.9-4.459a27.205,27.205,0,0,0-8.654,1.312,33.77,33.77,0,0,0-7.168,3.321,31.524,31.524,0,0,0-5.683,4.459q-2.449,2.45-4.37,4.72l-12.239-14.162a43.705,43.705,0,0,1,5.507-4.807,54.214,54.214,0,0,1,9.092-5.508,67.033,67.033,0,0,1,12.15-4.458,57.036,57.036,0,0,1,14.861-1.835,48.878,48.878,0,0,1,15.124,2.185,34.1,34.1,0,0,1,11.364,6.032,25.849,25.849,0,0,1,7.081,9.178,27.145,27.145,0,0,1,2.448,11.452,24.75,24.75,0,0,1-2.623,11.539,35.7,35.7,0,0,1-6.469,8.917,42.908,42.908,0,0,1-8.392,6.556q-4.549,2.712-8.392,4.633-3.672,1.749-8.305,4.109a75.341,75.341,0,0,0-9,5.419,58.619,58.619,0,0,0-7.867,6.557,19.617,19.617,0,0,0-4.9,7.692h57.87v17.309Z" fill="#f05a21"/>
        </g>
      </g>
      <g id="Group_668" data-name="Group 668">
        <g id="Group_667" data-name="Group 667">
          <path id="Path_411" data-name="Path 411" d="M2142.054,1744.892a63.709,63.709,0,0,1-3.409,21.242,52.337,52.337,0,0,1-9.441,16.784,43.129,43.129,0,0,1-14.162,11.014,40.2,40.2,0,0,1-17.745,3.934,40.744,40.744,0,0,1-17.833-3.934,41.906,41.906,0,0,1-14.162-11.014,53.256,53.256,0,0,1-9.354-16.784,67.89,67.89,0,0,1,0-42.485,53.246,53.246,0,0,1,9.354-16.784,42.957,42.957,0,0,1,14.162-11.1,40.023,40.023,0,0,1,17.833-4.021,39.487,39.487,0,0,1,17.745,4.021,44.244,44.244,0,0,1,14.162,11.1,52.327,52.327,0,0,1,9.441,16.784A63.71,63.71,0,0,1,2142.054,1744.892Zm-19.581,0a52.431,52.431,0,0,0-1.836-14.337,35.485,35.485,0,0,0-5.245-11.189,24.343,24.343,0,0,0-8.043-7.256,20.634,20.634,0,0,0-10.052-2.535,21.325,21.325,0,0,0-10.4,2.535,24.319,24.319,0,0,0-8.043,7.256,35.511,35.511,0,0,0-5.244,11.189,56.893,56.893,0,0,0,0,28.673,34.369,34.369,0,0,0,5.244,11.1,24.636,24.636,0,0,0,8.043,7.168,21.293,21.293,0,0,0,10.4,2.535,20.6,20.6,0,0,0,10.052-2.535,24.66,24.66,0,0,0,8.043-7.168,34.345,34.345,0,0,0,5.245-11.1A52.41,52.41,0,0,0,2122.473,1744.892Z" fill="#f05a21"/>
        </g>
      </g>
    </g>
    <g id="Group_680" data-name="Group 680">
      <g id="Group_671" data-name="Group 671">
        <g id="Group_670" data-name="Group 670">
          <path id="Path_412" data-name="Path 412" d="M1997.932,1807.7l4.607,9.817,4.668-9.817h5.391l-7.62,14.093v7.288h-4.908v-7.348l-7.5-14.033Z" fill="#f05a21"/>
        </g>
      </g>
      <g id="Group_673" data-name="Group 673">
        <g id="Group_672" data-name="Group 672">
          <path id="Path_413" data-name="Path 413" d="M2035.182,1824.742v4.337h-15.026V1807.7h14.755v4.336h-9.817v4.156h8.432v4.005h-8.432v4.547Z" fill="#f05a21"/>
        </g>
      </g>
      <g id="Group_675" data-name="Group 675">
        <g id="Group_674" data-name="Group 674">
          <path id="Path_414" data-name="Path 414" d="M2049.577,1807.7h4.457l7.8,21.381h-5.059l-1.657-4.788h-6.655l-1.626,4.788h-5.059Zm4.728,13.19-2.5-7.559-2.56,7.559Z" fill="#f05a21"/>
        </g>
      </g>
      <g id="Group_677" data-name="Group 677">
        <g id="Group_676" data-name="Group 676">
          <path id="Path_415" data-name="Path 415" d="M2069.512,1829.079V1807.7h9.636a6.214,6.214,0,0,1,2.786.632,7.4,7.4,0,0,1,2.213,1.657,7.768,7.768,0,0,1,1.461,2.318,6.906,6.906,0,0,1,.527,2.62,7.454,7.454,0,0,1-.933,3.644,6.533,6.533,0,0,1-2.56,2.559l4.7,7.951h-5.571l-4.1-6.9h-3.222v6.9Zm4.939-11.2h4.517a1.856,1.856,0,0,0,1.506-.828,3.4,3.4,0,0,0,.632-2.123,2.988,2.988,0,0,0-.723-2.108,2.117,2.117,0,0,0-1.566-.783h-4.366Z" fill="#f05a21"/>
        </g>
      </g>
      <g id="Group_679" data-name="Group 679">
        <g id="Group_678" data-name="Group 678">
          <path id="Path_416" data-name="Path 416" d="M2108.088,1813.962a2.985,2.985,0,0,0-.633-.452,11.869,11.869,0,0,0-1.355-.693,13.042,13.042,0,0,0-1.777-.632,7.074,7.074,0,0,0-1.927-.271q-2.651,0-2.65,1.777a1.408,1.408,0,0,0,.286.9,2.519,2.519,0,0,0,.843.647,7.74,7.74,0,0,0,1.4.528q.843.24,1.958.541a25.8,25.8,0,0,1,2.77.919,7.435,7.435,0,0,1,2.093,1.235,5.017,5.017,0,0,1,1.325,1.791,6.225,6.225,0,0,1,.467,2.53,6.333,6.333,0,0,1-.678,3.056,5.686,5.686,0,0,1-1.792,2.018,7.539,7.539,0,0,1-2.559,1.114,12.744,12.744,0,0,1-2.981.347,16.716,16.716,0,0,1-2.41-.181,17.544,17.544,0,0,1-2.409-.527,19.247,19.247,0,0,1-2.273-.828,12.743,12.743,0,0,1-2.033-1.114l2.168-4.307a4.191,4.191,0,0,0,.784.572,11.556,11.556,0,0,0,1.641.844,16.717,16.717,0,0,0,2.183.753,9.143,9.143,0,0,0,2.439.331q2.619,0,2.62-1.6a1.347,1.347,0,0,0-.392-.994,3.7,3.7,0,0,0-1.083-.708,11.889,11.889,0,0,0-1.642-.587q-.948-.272-2.062-.6a17.8,17.8,0,0,1-2.56-.979,6.748,6.748,0,0,1-1.792-1.219,4.431,4.431,0,0,1-1.054-1.6,5.866,5.866,0,0,1-.346-2.107,6.708,6.708,0,0,1,.632-2.982,6.424,6.424,0,0,1,1.716-2.183,7.476,7.476,0,0,1,2.515-1.34,9.991,9.991,0,0,1,3.027-.452,11.539,11.539,0,0,1,2.2.211,16.662,16.662,0,0,1,2.078.542,14.869,14.869,0,0,1,1.851.753q.859.422,1.582.843Z" fill="#f05a21"/>
        </g>
      </g>
    </g>
    <g id="Group_701" data-name="Group 701">
      <g id="Group_682" data-name="Group 682">
        <g id="Group_681" data-name="Group 681">
          <path id="Path_417" data-name="Path 417" d="M2158.54,1718.611h9.034c6.327,0,11.084,2.226,11.084,8.859,0,6.371-4.757,9.252-10.91,9.252h-4.015v10.429h-5.193Zm8.815,13.965c4.189,0,6.153-1.659,6.153-5.106,0-3.491-2.181-4.713-6.327-4.713h-3.448v9.819Z" fill="#4d4e4e"/>
        </g>
      </g>
      <g id="Group_684" data-name="Group 684">
        <g id="Group_683" data-name="Group 683">
          <path id="Path_418" data-name="Path 418" d="M2185.074,1718.611h9.645c5.978,0,10.561,2.1,10.561,8.51,0,4.32-2.226,6.982-5.63,8.16l6.764,11.87h-5.8l-6.11-11.084h-4.233v11.084h-5.193Zm9.121,13.31c3.884,0,5.978-1.614,5.978-4.8,0-3.229-2.094-4.364-5.978-4.364h-3.928v9.164Z" fill="#4d4e4e"/>
        </g>
      </g>
      <g id="Group_686" data-name="Group 686">
        <g id="Group_685" data-name="Group 685">
          <path id="Path_419" data-name="Path 419" d="M2210.6,1732.75c0-9.207,5.15-14.662,12.612-14.662s12.612,5.455,12.612,14.662c0,9.252-5.15,14.925-12.612,14.925S2210.6,1742,2210.6,1732.75Zm19.9,0c0-6.327-2.88-10.124-7.288-10.124-4.451,0-7.288,3.8-7.288,10.124,0,6.372,2.837,10.43,7.288,10.43C2227.624,1743.18,2230.5,1739.122,2230.5,1732.75Z" fill="#4d4e4e"/>
        </g>
      </g>
      <g id="Group_688" data-name="Group 688">
        <g id="Group_687" data-name="Group 687">
          <path id="Path_420" data-name="Path 420" d="M2242.638,1718.611h9.033c6.327,0,11.084,2.226,11.084,8.859,0,6.371-4.757,9.252-10.91,9.252h-4.015v10.429h-5.192Zm8.815,13.965c4.189,0,6.153-1.659,6.153-5.106,0-3.491-2.183-4.713-6.328-4.713h-3.448v9.819Z" fill="#4d4e4e"/>
        </g>
      </g>
      <g id="Group_690" data-name="Group 690">
        <g id="Group_689" data-name="Group 689">
          <path id="Path_421" data-name="Path 421" d="M2269.172,1718.611h17.237v4.364h-12.044v7.157h10.211v4.364h-10.211v8.291h12.481v4.364h-17.674Z" fill="#4d4e4e"/>
        </g>
      </g>
      <g id="Group_692" data-name="Group 692">
        <g id="Group_691" data-name="Group 691">
          <path id="Path_422" data-name="Path 422" d="M2293.785,1718.611h5.193v24.176h11.783v4.364h-16.976Z" fill="#4d4e4e"/>
        </g>
      </g>
      <g id="Group_694" data-name="Group 694">
        <g id="Group_693" data-name="Group 693">
          <path id="Path_423" data-name="Path 423" d="M2316.827,1718.611h5.193v24.176H2333.8v4.364h-16.976Z" fill="#4d4e4e"/>
        </g>
      </g>
      <g id="Group_696" data-name="Group 696">
        <g id="Group_695" data-name="Group 695">
          <path id="Path_424" data-name="Path 424" d="M2339.869,1718.611h5.193v28.54h-5.193Z" fill="#4d4e4e"/>
        </g>
      </g>
      <g id="Group_698" data-name="Group 698">
        <g id="Group_697" data-name="Group 697">
          <path id="Path_425" data-name="Path 425" d="M2353.355,1718.611h5.543l8.553,15.71a63.709,63.709,0,0,1,2.923,6.459h.175c-.305-3.055-.655-6.546-.655-9.688v-12.481h4.844v28.54H2369.2l-8.553-15.71a63.83,63.83,0,0,1-2.924-6.458h-.175c.306,2.967.655,6.5.655,9.687v12.481h-4.844Z" fill="#4d4e4e"/>
        </g>
      </g>
      <g id="Group_700" data-name="Group 700">
        <g id="Group_699" data-name="Group 699">
          <path id="Path_426" data-name="Path 426" d="M2381.591,1732.969c0-9.339,5.935-14.881,13.528-14.881a11.584,11.584,0,0,1,8.641,3.622l-2.75,3.185a7.568,7.568,0,0,0-5.716-2.269c-5.019,0-8.379,3.84-8.379,10.212,0,6.415,2.968,10.342,8.685,10.342a6.116,6.116,0,0,0,3.927-1.222v-6.066h-5.28v-4.233h9.949v12.612a13.079,13.079,0,0,1-9.12,3.4C2387.352,1747.675,2381.591,1742.438,2381.591,1732.969Z" fill="#4d4e4e"/>
        </g>
      </g>
    </g>
    <g id="Group_716" data-name="Group 716">
      <g id="Group_703" data-name="Group 703">
        <g id="Group_702" data-name="Group 702">
          <path id="Path_427" data-name="Path 427" d="M2156.167,1791.083l5.011-6.172a15.884,15.884,0,0,0,10.023,3.788c3.6,0,5.255-1.344,5.255-3.483,0-2.322-2.139-3.056-5.622-4.461l-5.073-2.2c-4.216-1.65-8.066-5.133-8.066-10.878,0-6.661,5.989-12.038,14.422-12.038a19.082,19.082,0,0,1,12.894,4.95l-4.949,6.172a14.2,14.2,0,0,0-7.945-2.933c-2.933,0-4.827,1.161-4.827,3.238,0,2.323,2.5,3.117,6.05,4.522l4.949,2.017c4.95,1.956,7.884,5.256,7.884,10.817,0,6.661-5.561,12.466-15.156,12.466A21.22,21.22,0,0,1,2156.167,1791.083Z" fill="#4d4e4e"/>
        </g>
      </g>
      <g id="Group_705" data-name="Group 705">
        <g id="Group_704" data-name="Group 704">
          <path id="Path_428" data-name="Path 428" d="M2194.114,1777.455v-21.083h9.473v22.122c0,7.577,2.261,10.2,6.6,10.2,4.4,0,6.783-2.628,6.783-10.2v-22.122h9.1v21.083c0,13.444-5.317,19.433-15.888,19.433S2194.114,1790.9,2194.114,1777.455Z" fill="#4d4e4e"/>
        </g>
      </g>
      <g id="Group_707" data-name="Group 707">
        <g id="Group_706" data-name="Group 706">
          <path id="Path_429" data-name="Path 429" d="M2234.752,1776.539c0-13.261,8.921-20.9,18.943-20.9a16.655,16.655,0,0,1,12.1,5.194l-5.011,5.745a9.353,9.353,0,0,0-6.844-2.75c-5.256,0-9.472,4.644-9.472,12.344,0,7.944,3.727,12.527,9.289,12.527a10.111,10.111,0,0,0,7.638-3.3l4.95,5.623a16.539,16.539,0,0,1-12.894,5.866C2243.306,1796.888,2234.752,1789.983,2234.752,1776.539Z" fill="#4d4e4e"/>
        </g>
      </g>
      <g id="Group_709" data-name="Group 709">
        <g id="Group_708" data-name="Group 708">
          <path id="Path_430" data-name="Path 430" d="M2269.583,1776.539c0-13.261,8.921-20.9,18.943-20.9a16.655,16.655,0,0,1,12.1,5.194l-5.011,5.745a9.351,9.351,0,0,0-6.844-2.75c-5.256,0-9.472,4.644-9.472,12.344,0,7.944,3.728,12.527,9.289,12.527a10.115,10.115,0,0,0,7.639-3.3l4.949,5.623a16.539,16.539,0,0,1-12.894,5.866C2278.137,1796.888,2269.583,1789.983,2269.583,1776.539Z" fill="#4d4e4e"/>
        </g>
      </g>
      <g id="Group_711" data-name="Group 711">
        <g id="Group_710" data-name="Group 710">
          <path id="Path_431" data-name="Path 431" d="M2308.568,1756.372h25.178v7.944H2318.1v7.456h13.382v7.944H2318.1v8.494h16.254v7.945h-25.788Z" fill="#4d4e4e"/>
        </g>
      </g>
      <g id="Group_713" data-name="Group 713">
        <g id="Group_712" data-name="Group 712">
          <path id="Path_432" data-name="Path 432" d="M2341.2,1791.083l5.011-6.172a15.882,15.882,0,0,0,10.022,3.788c3.6,0,5.255-1.344,5.255-3.483,0-2.322-2.138-3.056-5.621-4.461l-5.073-2.2c-4.216-1.65-8.066-5.133-8.066-10.878,0-6.661,5.989-12.038,14.422-12.038a19.082,19.082,0,0,1,12.894,4.95l-4.95,6.172a14.2,14.2,0,0,0-7.944-2.933c-2.934,0-4.828,1.161-4.828,3.238,0,2.323,2.506,3.117,6.05,4.522l4.95,2.017c4.95,1.956,7.883,5.256,7.883,10.817,0,6.661-5.561,12.466-15.155,12.466A21.22,21.22,0,0,1,2341.2,1791.083Z" fill="#4d4e4e"/>
        </g>
      </g>
      <g id="Group_715" data-name="Group 715">
        <g id="Group_714" data-name="Group 714">
          <path id="Path_433" data-name="Path 433" d="M2375.662,1791.083l5.012-6.172a15.879,15.879,0,0,0,10.022,3.788c3.6,0,5.255-1.344,5.255-3.483,0-2.322-2.139-3.056-5.622-4.461l-5.072-2.2c-4.217-1.65-8.066-5.133-8.066-10.878,0-6.661,5.988-12.038,14.422-12.038a19.087,19.087,0,0,1,12.894,4.95l-4.95,6.172a14.2,14.2,0,0,0-7.944-2.933c-2.934,0-4.828,1.161-4.828,3.238,0,2.323,2.505,3.117,6.05,4.522l4.95,2.017c4.949,1.956,7.883,5.256,7.883,10.817,0,6.661-5.561,12.466-15.155,12.466A21.222,21.222,0,0,1,2375.662,1791.083Z" fill="#4d4e4e"/>
        </g>
      </g>
    </g>
    <g id="Group_718" data-name="Group 718">
      <g id="Group_717" data-name="Group 717">
        <rect id="Rectangle_266" data-name="Rectangle 266" width="22.778" height="1.677" transform="translate(1964.509 1818.878)" fill="#f05a21"/>
      </g>
    </g>
    <g id="Group_720" data-name="Group 720">
      <g id="Group_719" data-name="Group 719">
        <rect id="Rectangle_267" data-name="Rectangle 267" width="22.156" height="1.677" transform="translate(2118.118 1818.878)" fill="#f05a21"/>
      </g>
    </g>
  </g>
</svg>
